# xmcd
#
# Track frame offsets: 
#        150
#        22317
#        53270
#        66137
#        85612
#        111617
#        137615
#        158245
#        186957
#        215742
#        242110
#        274325
#        298230
#        323110
#
# Disc length: 4790 seconds
#
# Revision: 10
# Processed by: cddbd v1.5.2PL0 Copyright (c) Steve Scherf et al.
# Submitted via: ExactAudioCopy v0.99pb4
#
DISCID=d912b40e
DTITLE=Yes - Yes
DYEAR=1969
DGENRE=Progressive Rock
TTITLE0=Beyond And Before
TTITLE1=I See You
TTITLE2=Yesterday And Today
TTITLE3=Looking Around
TTITLE4=Harold Land
TTITLE5=Every Little Thing
TTITLE6=Sweetness
TTITLE7=Survival
TTITLE8=Everydays (Single Version)
TTITLE9=Dear Father (Early Version #2)
TTITLE10=Something's Coming
TTITLE11=Everydays (Early Version #1)
TTITLE12=Dear Father (Early Version #1)
TTITLE13=Something's Coming (Early Version)
EXTD=
EXTT0=
EXTT1=
EXTT2=
EXTT3=
EXTT4=
EXTT5=
EXTT6=
EXTT7=
EXTT8=
EXTT9=
EXTT10=
EXTT11=
EXTT12=
EXTT13=
PLAYORDER=
